<svg width="64" height="64" viewBox="0 0 64 64" fill="none" xmlns="http://www.w3.org/2000/svg">
  <rect width="64" height="64" rx="16" fill="#E60023"/>
  <ellipse cx="36.5" cy="38.5" rx="20.5" ry="16.5" fill="#F4778D"/>
  <ellipse cx="19.5" cy="44" rx="9.5" ry="7.5" fill="#F4778D"/>
  <path d="M24.5 24C21.6 25.5 20 28.2 20.2 31.7C20.4 34.8 22.4 37.7 25.5 39.4L29.7 33.2L24.5 24Z" fill="#F4778D"/>
  <ellipse cx="25.8" cy="35.8" rx="2.8" ry="2.8" fill="white"/>
  <rect x="34" y="22" width="11.5" height="2.8" rx="1.4" transform="rotate(-9 34 22)" fill="#D94E68"/>
  <ellipse cx="34.5" cy="54" rx="2.7" ry="6.2" fill="#D94E68"/>
  <ellipse cx="49.5" cy="54" rx="2.7" ry="6.2" fill="#D94E68"/>
  <circle cx="41.5" cy="18.5" r="4.5" fill="#F0BB3D"/>
  <ellipse cx="50.5" cy="24.5" rx="4.9" ry="3.4" transform="rotate(-32 50.5 24.5)" fill="#F0BB3D"/>
  <ellipse cx="47.5" cy="34" rx="4.8" ry="4.8" fill="#F0BB3D"/>
</svg>
