<svg width="64" height="64" viewBox="0 0 64 64" fill="none" xmlns="http://www.w3.org/2000/svg">
  <rect width="64" height="64" rx="16" fill="#E60023"/>
  <ellipse cx="38" cy="40" rx="23.5" ry="18.5" fill="#F4778D"/>
  <ellipse cx="17" cy="45.5" rx="11.8" ry="9.2" fill="#F4778D"/>
  <path d="M24 22.4C20.2 24.1 17.9 27.6 18.2 32.1C18.5 36 21 39.6 24.9 41.8L30.4 33.7L24 22.4Z" fill="#F4778D"/>
  <ellipse cx="26.3" cy="35.6" rx="3.1" ry="3.1" fill="white"/>
  <rect x="34.3" y="21" width="13.2" height="3.2" rx="1.6" transform="rotate(-9 34.3 21)" fill="#D94E68"/>
  <ellipse cx="34.5" cy="54.7" rx="3.1" ry="6.7" fill="#D94E68"/>
  <ellipse cx="51.2" cy="54.7" rx="3.1" ry="6.7" fill="#D94E68"/>
  <circle cx="42.5" cy="17.3" r="4.9" fill="#F0BB3D"/>
  <ellipse cx="51.8" cy="23.9" rx="5.5" ry="3.8" transform="rotate(-32 51.8 23.9)" fill="#F0BB3D"/>
  <ellipse cx="49.2" cy="34" rx="5.4" ry="5.4" fill="#F0BB3D"/>
</svg>
