<svg width="64" height="64" viewBox="0 0 64 64" fill="none" xmlns="http://www.w3.org/2000/svg">
  <rect width="64" height="64" rx="16" fill="#E60023"/>
  <ellipse cx="35.5" cy="37.5" rx="18.5" ry="14.5" fill="#F4778D"/>
  <ellipse cx="21" cy="42.5" rx="8" ry="6.5" fill="#F4778D"/>
  <path d="M23.5 24.5C20.8 25.8 19.4 28.5 19.6 31.6C19.8 34.5 21.6 37.1 24.4 38.6L28 33L23.5 24.5Z" fill="#F4778D"/>
  <ellipse cx="25.5" cy="36" rx="2.7" ry="2.7" fill="white"/>
  <rect x="33" y="22" width="10" height="2.6" rx="1.3" transform="rotate(-9 33 22)" fill="#D94E68"/>
  <ellipse cx="34.5" cy="54" rx="2.5" ry="6" fill="#D94E68"/>
  <ellipse cx="48" cy="54" rx="2.5" ry="6" fill="#D94E68"/>
  <circle cx="41" cy="19" r="4.4" fill="#F0BB3D"/>
  <ellipse cx="49.5" cy="24.5" rx="4.7" ry="3.2" transform="rotate(-32 49.5 24.5)" fill="#F0BB3D"/>
  <ellipse cx="46.5" cy="34" rx="4.6" ry="4.6" fill="#F0BB3D"/>
</svg>
