<svg width="1672" height="1672" viewBox="0 0 1672 1672" fill="none" xmlns="http://www.w3.org/2000/svg">
<path d="M749.322 666.264C753.48 661.494 759.411 657.35 764.686 653.914C797.872 632.297 834.002 646.097 857.816 673.875L858.747 675.025C865.286 676.013 867.474 675.683 874.063 675.2C897.673 673.686 921.463 674.691 945.098 675.519C956.087 675.905 968.407 677.852 979.216 677.698C995.601 664.393 1007.47 651.098 1030.35 647.927C1042.68 646.217 1059.13 652.16 1068.72 659.932C1091.25 675.53 1088.49 682.136 1096.77 704.145L1106.68 707.227C1118.45 709.853 1132.7 716.437 1144.24 720.806C1201.83 742.612 1254.43 774.548 1301.07 814.675C1304.8 817.875 1316.59 828.121 1318.65 831.052C1477.56 978.169 1489.11 1205.62 1340.64 1364.36C1324.89 1381.2 1308.27 1397.24 1290.39 1411.79C1280.05 1420.29 1263.15 1431.13 1254.28 1439.65C1252.34 1475.28 1250.6 1510.91 1249.08 1546.56C1248.38 1561.69 1247.81 1589.71 1245.98 1604.06C1213.02 1606.02 1173.08 1603.74 1138.81 1604.77C1132 1592.77 1116.73 1527.36 1109.87 1510.71C1109.32 1510.51 1108.76 1510.3 1108.22 1510.09C1100.08 1510.69 1088.5 1515.88 1080.07 1518.23C1022.04 1534.39 963.663 1540.93 903.535 1541.48C808.141 1542.36 712.855 1531.73 619.109 1514.58C611.244 1513.14 601.661 1510.97 593.883 1510.86C588.727 1538.43 585.533 1578.85 579.218 1604.24C557.518 1604.73 535.71 1604.66 513.999 1604.56C500.129 1604.5 485.284 1605.19 471.506 1604.56C465.994 1571.22 463.407 1535.58 458.584 1502.02C457.197 1492.36 456.25 1481.03 454.543 1471.6L453.451 1471.08C429.868 1460 402.013 1452.35 378.109 1440.74C324.033 1414.47 252.744 1378.41 211.691 1333.83C200.575 1321.83 191.592 1308.01 185.129 1292.98C182.633 1288.48 180.086 1282.19 178.52 1277.32C147.368 1180.71 214.937 1081.68 315.687 1073.89C328.859 1072.87 342.83 1073.8 356.286 1073.42C364.424 991.819 401.229 921.559 453.255 859.602C442.287 853.177 430.668 840.971 423.759 830.407C406.693 804.312 403.165 775.579 404.581 745.031C404.997 736.047 405.04 728.558 406.769 719.661C421.146 721.151 433.75 723.663 447.153 729.054C484.779 744.187 505.924 759.739 522.292 797.918C528.734 794.458 535.89 787.57 541.927 782.874C550.346 776.324 556.522 772.316 565.571 766.879C601.83 744.741 640.244 726.344 680.223 711.974C696.953 706.074 712.965 701.747 729.777 696.622C737.472 687.638 738.314 675.991 749.322 666.264ZM561.486 1067.49C587.419 1064.77 606.201 1041.49 603.372 1015.57C600.544 989.647 577.182 970.96 551.274 973.899C525.519 976.821 506.971 1000.02 509.783 1025.78C512.595 1051.55 535.708 1070.19 561.486 1067.49Z" fill="#F4778D"/>
<path d="M1318.65 831.055C1477.55 978.171 1489.11 1205.62 1340.64 1364.36C1324.89 1381.2 1308.26 1397.24 1290.39 1411.79C1280.04 1420.3 1263.15 1431.13 1254.28 1439.65C1252.33 1475.28 1250.59 1510.92 1249.08 1546.56C1248.38 1561.69 1247.81 1589.71 1245.97 1604.06C1213.01 1606.02 1173.08 1603.74 1138.8 1604.77C1131.99 1592.77 1116.73 1527.37 1109.86 1510.71C1109.31 1510.51 1108.76 1510.3 1108.21 1510.09C1100.08 1510.7 1088.5 1515.88 1080.07 1518.23C1022.03 1534.4 963.66 1540.93 903.531 1541.48C808.138 1542.36 712.852 1531.74 619.105 1514.58C611.241 1513.14 601.658 1510.97 593.879 1510.86C588.724 1538.43 585.53 1578.85 579.215 1604.24C557.514 1604.73 535.706 1604.66 513.995 1604.57C500.126 1604.5 485.281 1605.2 471.502 1604.56C465.99 1571.22 463.404 1535.58 458.58 1502.02C457.193 1492.36 456.246 1481.04 454.54 1471.61L453.448 1471.08C429.865 1460 402.009 1452.36 378.105 1440.75C324.029 1414.47 252.741 1378.41 211.688 1333.83C200.571 1321.83 191.588 1308.02 185.125 1292.99C186.595 1293.8 186.797 1293.81 187.613 1295.26C190.752 1299.88 198.973 1305.13 203.839 1308.36C266.45 1350.01 341.776 1382.18 411.849 1406.74C560.544 1457.28 717.415 1479.42 874.288 1472.01C986.691 1465.62 1089.73 1437.88 1184.38 1375.34C1258.98 1326.06 1330.56 1246.93 1359.99 1161.51C1391.04 1073.14 1387.45 976.285 1349.93 890.456C1340.31 867.826 1328.58 851.653 1319.02 831.838L1318.65 831.055Z" fill="#E15E76"/>
<path d="M749.322 666.264C753.479 661.494 759.41 657.35 764.686 653.914C797.872 632.297 834.001 646.097 857.816 673.875L858.746 675.025C865.286 676.013 867.474 675.683 874.062 675.2C897.673 673.686 921.463 674.691 945.098 675.519C956.086 675.905 968.406 677.852 979.215 677.698C995.601 664.393 1007.47 651.098 1030.35 647.927C1042.68 646.217 1059.13 652.16 1068.72 659.932C1091.25 675.53 1088.49 682.136 1096.77 704.145C1096.5 708.919 1095.96 721.91 1094.8 725.768C1092.4 733.815 1088.48 741.447 1087.25 750.223L1094.23 751.891C1105.02 754.674 1114.99 758.1 1125.99 760.527C1122.09 773.688 1115.64 802.644 1112.87 816.34C1101.08 814.408 1085.64 809.046 1073.74 806.19C1057.7 802.343 1041.26 798.985 1025.09 796.155C943.114 781.805 855.309 784.334 773.94 801.764C760.018 804.746 727.409 812.074 714.739 817.377C714.363 812.998 713.465 808.771 712.413 804.51C708.813 789.938 705.897 775.212 702.445 760.606C709.31 758.914 734.457 753.073 739.206 750.198C736.299 744.845 734.181 736.14 731.251 730.716C727.68 724.102 731.89 700.958 729.776 696.622C737.472 687.638 738.313 675.991 749.322 666.264Z" fill="#E15E76"/>
<path d="M749.321 666.264C753.478 661.494 759.409 657.35 764.685 653.914C797.871 632.297 834 646.097 857.815 673.875L858.746 675.025C865.285 676.013 867.473 675.683 874.061 675.2C869.196 680.379 869.596 681.723 868.779 688.905C874.086 705.238 876.641 711.511 875.947 728.868C872.821 751.61 863.277 767.473 843.332 779.732L840.107 781.726C819.713 799.728 785.573 792.634 765.116 778.464C752.42 769.67 747.145 763.209 739.206 750.198C736.299 744.845 734.18 736.14 731.251 730.716C727.679 724.102 731.889 700.958 729.776 696.622C737.471 687.638 738.313 675.991 749.321 666.264Z" fill="#F0BB3D"/>
<path d="M749.321 666.266C743.951 680.169 738.332 690.402 738.901 706.217C740.399 747.78 778.891 787.119 821.256 784.262C823.975 784.08 831.51 783.195 833.666 782.372L840.107 781.728C819.713 799.73 785.573 792.636 765.116 778.466C752.42 769.672 747.145 763.211 739.206 750.2C736.299 744.846 734.18 736.142 731.251 730.718C727.679 724.104 731.889 700.96 729.776 696.624C737.471 687.64 738.313 675.993 749.321 666.266Z" fill="#D59B2B"/>
<path d="M857.813 673.875L858.744 675.025C865.283 676.013 867.471 675.683 874.06 675.2C869.194 680.378 869.594 681.723 868.778 688.905C874.084 705.238 876.64 711.511 875.946 728.868C872.819 751.61 863.275 767.473 843.33 779.732L840.106 781.726L833.664 782.37C836.971 780.014 839.534 779.87 842.963 777.773C851.845 772.343 861.022 763.685 866.802 755.028C868.288 752.794 867.782 750.859 867.104 748.788C866.01 749.544 865.945 751.155 865.479 752.83C862.793 754.88 859.356 758.114 856.385 758.711C857.854 756.161 862.026 753.43 862.549 752.586C869.414 741.507 870.002 708.736 866.361 697.251C862.565 685.257 858.417 689.429 857.813 673.875Z" fill="#EFB351"/>
<path d="M858.746 675.023C865.286 676.011 867.473 675.681 874.062 675.198C869.196 680.377 869.596 681.721 868.78 688.903C865.914 684.425 862.273 678.95 858.746 675.023Z" fill="#E88677"/>
<path d="M979.213 677.698C995.598 664.393 1007.47 651.099 1030.34 647.928C1042.68 646.218 1059.12 652.161 1068.72 659.933C1091.25 675.531 1088.49 682.137 1096.77 704.146C1096.5 708.92 1095.96 721.911 1094.8 725.768C1092.4 733.816 1088.48 741.448 1087.25 750.224C1075.21 764.967 1068.18 775.456 1050.82 785.56C1033.28 795.767 1005.6 797.538 989.328 784.293C965.187 770.793 957.774 757.214 957.578 729.722C960.917 703.216 964.942 698.2 979.213 677.698Z" fill="#F0BB3D"/>
<path d="M1068.72 659.93C1091.25 675.528 1088.49 682.134 1096.77 704.143C1096.5 708.917 1095.96 721.908 1094.8 725.765C1092.4 733.813 1088.48 741.445 1087.25 750.221C1075.21 764.964 1068.18 775.453 1050.82 785.557C1033.28 795.764 1005.6 797.535 989.328 784.29C1006.31 786.734 1024.59 785.139 1040.09 775.264C1071.6 755.2 1092.07 712.685 1078.78 676.149C1076.85 670.847 1072.45 665.905 1069.47 661.156L1068.72 659.93Z" fill="#D7952E"/>
<path d="M971.753 737.128C970.774 716.56 975.321 701.298 988.424 684.734C1003.14 666.141 1034.31 652.155 1055.01 669.965C1064.9 678.482 1067.35 690.017 1068.23 702.608C1065.89 695.02 1064.02 688.87 1058.99 682.462C1053.17 674.933 1044.47 670.183 1034.99 669.366C1004.91 667.026 976.358 700.138 973.909 728.705C973.46 731.231 972.978 735.007 971.753 737.128Z" fill="#D59B2B"/>
<path d="M971.754 737.126C972.979 735.005 973.46 731.229 973.909 728.703C974.13 735.476 974.636 743.652 974.611 750.263C973.526 746.253 971.86 741.152 971.754 737.126Z" fill="#EFB351"/>
<path d="M874.059 675.197C897.67 673.683 921.46 674.688 945.095 675.516C956.084 675.902 968.403 677.849 979.213 677.694C964.942 698.196 960.917 703.212 957.578 729.718C953.871 729.781 949.373 729.997 945.707 729.783C922.44 728.424 899.229 729.188 875.945 728.865C876.639 711.508 874.084 705.235 868.777 688.902C869.594 681.72 869.194 680.376 874.059 675.197Z" fill="#F4778D"/>
<path d="M1096.77 704.148L1106.68 707.23C1102.7 707.962 1103.48 707.165 1101.69 709.57C1096.42 716.661 1098.39 727.063 1097.17 735.469C1096.37 740.922 1095.29 746.425 1094.23 751.894L1087.25 750.226C1088.48 741.45 1092.4 733.818 1094.8 725.771C1095.96 721.913 1096.5 708.923 1096.77 704.148Z" fill="#E88677"/>
<path d="M938.123 605.303C933.984 603.728 925.109 594.903 922.072 591.515C884.338 549.386 922.783 478.672 974.951 473.115C991.516 471.35 1009.59 478.953 1022.25 489.219C1073.42 527.576 1042.32 608.008 983.662 616.343C968.55 618.49 950.083 615.305 938.123 605.303Z" fill="#F0BB3D"/>
<path d="M1022.25 489.219C1073.42 527.576 1042.32 608.008 983.664 616.343C968.552 618.49 950.085 615.305 938.125 605.303C996.082 624.715 1052.37 564.424 1031.73 507.43C1029.77 501.992 1025 494.916 1022.25 489.219Z" fill="#D59B2B"/>
<path d="M971.933 487.523C987.249 486.838 998.728 488.907 1009.92 501.036C1021.37 513.443 1020.74 526.708 1020.17 542.283L1019.53 542.455C1018.95 536.576 1019.87 529.813 1018 524.147C1009.72 499.028 985.429 491.613 962.373 498.438C940.363 507.449 923.749 526.193 921.667 550.414C921.471 552.709 921.781 552.038 920.875 554.259C920.712 553.774 920.557 553.289 920.394 552.804C920.206 531.093 929.072 508.606 948.208 496.983C957.091 491.587 961.875 489.716 971.933 487.523Z" fill="#D59B2B"/>
<path d="M765.24 361.582C785.099 323.576 882.142 381.746 888.755 413.844C891.049 424.965 889.081 427.442 884.321 436.624C880.533 443.194 876.582 452.064 868.973 453.828C829.239 463.038 769.433 423.994 756.495 388.881C754.821 377.357 759.608 371.606 765.24 361.582Z" fill="#F0BB3D"/>
<path d="M765.24 361.578C764.995 366.147 764.62 368.487 765.643 372.988C776.793 405.753 837.231 443.068 872.41 438.802C876.761 438.273 880.215 437.189 884.321 436.62C880.533 443.19 876.582 452.06 868.973 453.825C829.239 463.034 769.433 423.99 756.495 388.877C754.821 377.354 759.608 371.602 765.24 361.578Z" fill="#D59B2B"/>
<path d="M765.24 361.578C764.995 366.147 764.62 368.487 765.643 372.988C762.656 377.166 759.145 381.374 757.493 386.106L756.495 388.877C754.821 377.354 759.608 371.602 765.24 361.578Z" fill="#EFB351"/>
<path d="M859.71 389.5C846.092 378.087 828.94 368.827 811.495 365.233C802.447 363.369 787.835 361.52 782.943 371.872C780.614 376.803 786.697 387.77 788.835 392.236L788.45 393.294C785.769 391.261 779.293 377.59 779.084 373.686C778.58 364.241 783.792 357.871 793.443 358.083C816.971 358.602 844.974 373.542 861.849 389.146C865.874 392.617 868.552 396.518 871.336 401.034C867.809 397.635 863.131 392.271 859.71 389.5Z" fill="#D59B2B"/>
<path d="M958.674 341.289C937.032 314.531 989.69 272.065 1010.02 261.79C1029.9 251.741 1058.73 239.107 1072.51 264.429C1077.14 270.614 1082.12 278.785 1079.96 287.02C1070.37 323.703 1017.59 362.986 979.444 359.91C971.933 359.305 967.23 354.014 963.385 348.34L958.674 341.289Z" fill="#F0BB3D"/>
<path d="M1072.51 264.43C1077.14 270.615 1082.11 278.785 1079.96 287.02C1070.36 323.704 1017.59 362.986 979.441 359.911C971.93 359.305 967.228 354.015 963.383 348.341L958.672 341.289C992.561 357.781 1060.38 308.054 1068.73 274.689C1069.62 271.123 1070.5 267.525 1072.51 264.43Z" fill="#D59B2B"/>
<path d="M1026.66 262.117L1028.2 262.418C1027.71 263.263 1013.43 270.21 1011.03 271.7C994.619 281.877 973.613 299.127 970.886 319.425C969.009 333.407 980.708 331.583 989.68 332.74L989.125 333.598C979.516 334.493 976.658 333.803 968.282 329.79L964.453 321.566C971.172 291.166 999.518 273.237 1026.66 262.117Z" fill="#D59B2B"/>
<path d="M893.719 103.735C913.289 96.4882 935.299 102.38 948.639 118.435C962.33 134.913 963.775 158.355 952.223 176.395C940.671 194.435 918.775 202.925 898.079 197.386C877.383 191.849 862.655 173.555 861.659 152.157C860.663 130.758 873.628 111.175 893.719 103.735Z" fill="#F0BB3D"/>
<path d="M893.719 103.735C913.288 96.4882 935.298 102.38 948.638 118.435C945.969 116.971 935.576 108.475 932.286 105.994L930.629 106.571L930.645 105.567C931.274 107.931 931.412 107.21 931.053 109.395C916.823 103.902 916.611 104.226 901.099 104.256L902.226 103.897C900.25 103.318 895.98 103.667 893.719 103.735Z" fill="#EFB351"/>
<path d="M906.58 112.029C921.553 111.095 928.582 113.83 938.853 124.902C930.231 120.827 926.1 115.288 914.459 115.23C904.049 115.074 894.726 119.209 887.452 126.528C877.949 136.086 876.185 144.483 876.079 157.217C878.063 168.099 880.292 171.606 886.897 180.014L885.827 179.776C878.733 173.029 874.406 167.392 872.552 157.494C870.528 147.195 872.814 136.517 878.871 127.946C885.868 118.147 895.036 113.736 906.58 112.029Z" fill="#D59B2B"/>
<circle cx="556" cy="1019" r="52" fill="white"/>
</svg>
